<svg width="124" height="180" fill="none" xmlns="http://www.w3.org/2000/svg"><path fill-rule="evenodd" clip-rule="evenodd" d="M1.02 176.546c-.779.238-1.201 1.082-.945 1.886.256.803 1.095 1.261 1.873 1.023C108.998 146.677 118.289 44.493 118.775 5.747l2.213 2.273c.587.603 1.52.615 2.086.027.565-.588.547-1.553-.04-2.156l-4.448-4.57a1.56 1.56 0 00-.813-.686 1.457 1.457 0 00-.598-.133 1.406 1.406 0 00-1.039.45l-4.595 4.928c-.556.597-.525 1.562.07 2.156.595.594 1.529.592 2.085-.005l2.112-2.265c-.504 38.635-9.844 138.647-114.789 170.78z" fill="url(#paint0_linear)"/><defs><linearGradient id="paint0_linear" x1="72.609" y1="127.284" x2="48.239" y2="46.611" gradientUnits="userSpaceOnUse"><stop stop-color="#158DFF"/><stop offset="1" stop-color="#063DFF"/></linearGradient></defs></svg>